# xmcd
#
# Track frame offsets: 
#        150
#        4086
#        19636
#        34088
#        47266
#        61174
#        73152
#        95516
#        110373
#        122016
#        131951
#        143458
#        159094
#        171870
#        196232
#        210815
#
# Disc length: 3151 seconds
#
# Revision: 4
# Processed by: cddbd v1.5.2PL0 Copyright (c) Steve Scherf et al.
# Submitted via: ExactAudioCopyFreeDBPlugin 1.0
#
DISCID=c70c4d10
DTITLE=Various Artist - American Roots Music [Palm Pictures]
DYEAR=2001
DGENRE=Blues
TTITLE0=James Cotton - The King Biscuit Time Theme (blues)
TTITLE1=Mamie Smith - Crazy Blues (blues)
TTITLE2=Bessie Smith - St. Louis Blues (blues)
TTITLE3=Blind Lemon Jefferson - Black Snake Moan (blues)
TTITLE4=Charley Patton - Screamin' and Hollerin' the Blues (blues)
TTITLE5=Robert Johnson - Cross Road Blues (blues)
TTITLE6=Son House - Death Letter Blues (blues)
TTITLE7=Lonnie Johnson - Another Night to Cry (blues)
TTITLE8=Whistler's Jug Band - Foldin' Bed (blues)
TTITLE9=Albert Ammons and Pete Johnson - Boogie Woogie Dream (blues)
TTITLE10=Sonny Boy Williamson - Bye Bye Bird (blues)
TTITLE11=Howlin' Wolf - Shake for Me (blues)
TTITLE12=Muddy Waters - Got My Mojo Working (blues)
TTITLE13=B.B. King - The Thrill is Gone (blues)
TTITLE14=Robert Lockwood Jr. - Take a Little Walk with Me (blues)
TTITLE15=Keb' Mo' - Henry (blues)
EXTD=
EXTT0=
EXTT1=
EXTT2=
EXTT3=
EXTT4=
EXTT5=
EXTT6=
EXTT7=
EXTT8=
EXTT9=
EXTT10=
EXTT11=
EXTT12=
EXTT13=
EXTT14=
EXTT15=
PLAYORDER=
